<mxfile host="app.diagrams.net" modified="2022-09-29T13:15:46.041Z" agent="5.0 (Windows NT 10.0; Win64; x64) AppleWebKit/537.36 (KHTML, like Gecko) Chrome/105.0.0.0 Safari/537.36" etag="93Bh8GnWYEKKAtDVHamn" version="20.3.7" type="gitlab">
  <diagram id="R2lEEEUBdFMjLlhIrx00" name="Page-1">
    <mxGraphModel dx="1422" dy="1902" grid="1" gridSize="10" guides="1" tooltips="1" connect="1" arrows="1" fold="1" page="1" pageScale="1" pageWidth="850" pageHeight="1100" math="0" shadow="0" extFonts="Permanent Marker^https://fonts.googleapis.com/css?family=Permanent+Marker">
      <root>
        <mxCell id="0" />
        <mxCell id="1" parent="0" />
        <mxCell id="FwX2CeR1oTPyir31EzKj-26" style="edgeStyle=orthogonalEdgeStyle;rounded=0;orthogonalLoop=1;jettySize=auto;html=1;entryX=0.025;entryY=0.3;entryDx=0;entryDy=0;entryPerimeter=0;" edge="1" parent="1" source="FwX2CeR1oTPyir31EzKj-1" target="FwX2CeR1oTPyir31EzKj-17">
          <mxGeometry relative="1" as="geometry" />
        </mxCell>
        <mxCell id="FwX2CeR1oTPyir31EzKj-1" value="Responsable RH" style="shape=umlActor;verticalLabelPosition=bottom;verticalAlign=top;html=1;outlineConnect=0;" vertex="1" parent="1">
          <mxGeometry x="104" y="60" width="30" height="60" as="geometry" />
        </mxCell>
        <mxCell id="FwX2CeR1oTPyir31EzKj-27" style="edgeStyle=orthogonalEdgeStyle;rounded=0;orthogonalLoop=1;jettySize=auto;html=1;entryX=0.008;entryY=0.425;entryDx=0;entryDy=0;entryPerimeter=0;" edge="1" parent="1" source="FwX2CeR1oTPyir31EzKj-3" target="FwX2CeR1oTPyir31EzKj-18">
          <mxGeometry relative="1" as="geometry" />
        </mxCell>
        <mxCell id="FwX2CeR1oTPyir31EzKj-28" style="edgeStyle=orthogonalEdgeStyle;rounded=0;orthogonalLoop=1;jettySize=auto;html=1;entryX=0;entryY=0.5;entryDx=0;entryDy=0;" edge="1" parent="1" source="FwX2CeR1oTPyir31EzKj-3" target="FwX2CeR1oTPyir31EzKj-19">
          <mxGeometry relative="1" as="geometry" />
        </mxCell>
        <mxCell id="FwX2CeR1oTPyir31EzKj-3" value="Assistante commerciale" style="shape=umlActor;verticalLabelPosition=bottom;verticalAlign=top;html=1;outlineConnect=0;" vertex="1" parent="1">
          <mxGeometry x="104" y="220" width="30" height="60" as="geometry" />
        </mxCell>
        <mxCell id="FwX2CeR1oTPyir31EzKj-29" style="edgeStyle=orthogonalEdgeStyle;rounded=0;orthogonalLoop=1;jettySize=auto;html=1;" edge="1" parent="1" source="FwX2CeR1oTPyir31EzKj-4" target="FwX2CeR1oTPyir31EzKj-20">
          <mxGeometry relative="1" as="geometry" />
        </mxCell>
        <mxCell id="FwX2CeR1oTPyir31EzKj-4" value="Responsable de développement" style="shape=umlActor;verticalLabelPosition=bottom;verticalAlign=top;html=1;outlineConnect=0;" vertex="1" parent="1">
          <mxGeometry x="899" y="-180" width="30" height="60" as="geometry" />
        </mxCell>
        <mxCell id="FwX2CeR1oTPyir31EzKj-33" style="edgeStyle=orthogonalEdgeStyle;rounded=0;orthogonalLoop=1;jettySize=auto;html=1;exitX=0.5;exitY=0.5;exitDx=0;exitDy=0;exitPerimeter=0;entryX=1;entryY=0.5;entryDx=0;entryDy=0;" edge="1" parent="1" source="FwX2CeR1oTPyir31EzKj-5" target="FwX2CeR1oTPyir31EzKj-21">
          <mxGeometry relative="1" as="geometry" />
        </mxCell>
        <mxCell id="FwX2CeR1oTPyir31EzKj-34" style="edgeStyle=orthogonalEdgeStyle;rounded=0;orthogonalLoop=1;jettySize=auto;html=1;entryX=0.983;entryY=0.338;entryDx=0;entryDy=0;entryPerimeter=0;" edge="1" parent="1" source="FwX2CeR1oTPyir31EzKj-5" target="FwX2CeR1oTPyir31EzKj-22">
          <mxGeometry relative="1" as="geometry" />
        </mxCell>
        <mxCell id="FwX2CeR1oTPyir31EzKj-35" style="edgeStyle=orthogonalEdgeStyle;rounded=0;orthogonalLoop=1;jettySize=auto;html=1;entryX=1;entryY=0.5;entryDx=0;entryDy=0;" edge="1" parent="1" source="FwX2CeR1oTPyir31EzKj-5" target="FwX2CeR1oTPyir31EzKj-23">
          <mxGeometry relative="1" as="geometry">
            <Array as="points">
              <mxPoint x="810" />
              <mxPoint x="810" y="190" />
            </Array>
          </mxGeometry>
        </mxCell>
        <mxCell id="FwX2CeR1oTPyir31EzKj-5" value="Responsable de la production" style="shape=umlActor;verticalLabelPosition=bottom;verticalAlign=top;html=1;outlineConnect=0;" vertex="1" parent="1">
          <mxGeometry x="909" y="-30" width="30" height="60" as="geometry" />
        </mxCell>
        <mxCell id="FwX2CeR1oTPyir31EzKj-40" style="edgeStyle=orthogonalEdgeStyle;rounded=0;orthogonalLoop=1;jettySize=auto;html=1;" edge="1" parent="1" source="FwX2CeR1oTPyir31EzKj-6">
          <mxGeometry relative="1" as="geometry">
            <mxPoint x="740" y="280" as="targetPoint" />
          </mxGeometry>
        </mxCell>
        <mxCell id="FwX2CeR1oTPyir31EzKj-41" style="edgeStyle=orthogonalEdgeStyle;rounded=0;orthogonalLoop=1;jettySize=auto;html=1;entryX=1.008;entryY=0.375;entryDx=0;entryDy=0;entryPerimeter=0;" edge="1" parent="1" source="FwX2CeR1oTPyir31EzKj-6" target="FwX2CeR1oTPyir31EzKj-38">
          <mxGeometry relative="1" as="geometry" />
        </mxCell>
        <mxCell id="FwX2CeR1oTPyir31EzKj-42" style="edgeStyle=orthogonalEdgeStyle;rounded=0;orthogonalLoop=1;jettySize=auto;html=1;entryX=1;entryY=0.5;entryDx=0;entryDy=0;" edge="1" parent="1" source="FwX2CeR1oTPyir31EzKj-6" target="FwX2CeR1oTPyir31EzKj-39">
          <mxGeometry relative="1" as="geometry">
            <Array as="points">
              <mxPoint x="830" y="310" />
              <mxPoint x="830" y="480" />
            </Array>
          </mxGeometry>
        </mxCell>
        <mxCell id="FwX2CeR1oTPyir31EzKj-44" style="edgeStyle=orthogonalEdgeStyle;rounded=0;orthogonalLoop=1;jettySize=auto;html=1;entryX=1;entryY=0.738;entryDx=0;entryDy=0;entryPerimeter=0;" edge="1" parent="1" source="FwX2CeR1oTPyir31EzKj-6" target="FwX2CeR1oTPyir31EzKj-37">
          <mxGeometry relative="1" as="geometry">
            <Array as="points">
              <mxPoint x="830" y="310" />
              <mxPoint x="830" y="599" />
            </Array>
          </mxGeometry>
        </mxCell>
        <mxCell id="FwX2CeR1oTPyir31EzKj-6" value="Chef d&#39;atelier" style="shape=umlActor;verticalLabelPosition=bottom;verticalAlign=top;html=1;outlineConnect=0;" vertex="1" parent="1">
          <mxGeometry x="919" y="280" width="30" height="60" as="geometry" />
        </mxCell>
        <mxCell id="FwX2CeR1oTPyir31EzKj-7" value="Conducteur machine" style="shape=umlActor;verticalLabelPosition=bottom;verticalAlign=top;html=1;outlineConnect=0;" vertex="1" parent="1">
          <mxGeometry x="939" y="600" width="30" height="60" as="geometry" />
        </mxCell>
        <mxCell id="FwX2CeR1oTPyir31EzKj-8" value="Monitrice d&#39;atelier" style="shape=umlActor;verticalLabelPosition=bottom;verticalAlign=top;html=1;outlineConnect=0;" vertex="1" parent="1">
          <mxGeometry x="104" y="430" width="30" height="60" as="geometry" />
        </mxCell>
        <mxCell id="FwX2CeR1oTPyir31EzKj-14" value="Consulter dashboard" style="ellipse;whiteSpace=wrap;html=1;" vertex="1" parent="1">
          <mxGeometry x="290" y="-200" width="120" height="80" as="geometry" />
        </mxCell>
        <mxCell id="FwX2CeR1oTPyir31EzKj-24" style="edgeStyle=orthogonalEdgeStyle;rounded=0;orthogonalLoop=1;jettySize=auto;html=1;exitX=0.5;exitY=0.5;exitDx=0;exitDy=0;exitPerimeter=0;entryX=0;entryY=0.5;entryDx=0;entryDy=0;" edge="1" parent="1" source="FwX2CeR1oTPyir31EzKj-15" target="FwX2CeR1oTPyir31EzKj-14">
          <mxGeometry relative="1" as="geometry" />
        </mxCell>
        <mxCell id="FwX2CeR1oTPyir31EzKj-25" style="edgeStyle=orthogonalEdgeStyle;rounded=0;orthogonalLoop=1;jettySize=auto;html=1;entryX=0.042;entryY=0.275;entryDx=0;entryDy=0;entryPerimeter=0;" edge="1" parent="1" source="FwX2CeR1oTPyir31EzKj-15" target="FwX2CeR1oTPyir31EzKj-16">
          <mxGeometry relative="1" as="geometry" />
        </mxCell>
        <mxCell id="FwX2CeR1oTPyir31EzKj-15" value="Administrateur" style="shape=umlActor;verticalLabelPosition=bottom;verticalAlign=top;html=1;outlineConnect=0;" vertex="1" parent="1">
          <mxGeometry x="100" y="-120" width="30" height="60" as="geometry" />
        </mxCell>
        <mxCell id="FwX2CeR1oTPyir31EzKj-16" value="Gérer les données techniques" style="ellipse;whiteSpace=wrap;html=1;" vertex="1" parent="1">
          <mxGeometry x="290" y="-80" width="120" height="80" as="geometry" />
        </mxCell>
        <mxCell id="FwX2CeR1oTPyir31EzKj-17" value="Gérer les ressources humaines" style="ellipse;whiteSpace=wrap;html=1;" vertex="1" parent="1">
          <mxGeometry x="300" y="30" width="120" height="80" as="geometry" />
        </mxCell>
        <mxCell id="FwX2CeR1oTPyir31EzKj-18" value="Gérer les clients" style="ellipse;whiteSpace=wrap;html=1;" vertex="1" parent="1">
          <mxGeometry x="305" y="140" width="120" height="80" as="geometry" />
        </mxCell>
        <mxCell id="FwX2CeR1oTPyir31EzKj-19" value="Gérer les commandes clients" style="ellipse;whiteSpace=wrap;html=1;" vertex="1" parent="1">
          <mxGeometry x="290" y="250" width="120" height="80" as="geometry" />
        </mxCell>
        <mxCell id="FwX2CeR1oTPyir31EzKj-20" value="Gérer les fiches techniques des articles&amp;nbsp;" style="ellipse;whiteSpace=wrap;html=1;" vertex="1" parent="1">
          <mxGeometry x="599" y="-190" width="120" height="80" as="geometry" />
        </mxCell>
        <mxCell id="FwX2CeR1oTPyir31EzKj-21" value="Gérer les ordres de fabrications" style="ellipse;whiteSpace=wrap;html=1;" vertex="1" parent="1">
          <mxGeometry x="599" y="-70" width="120" height="80" as="geometry" />
        </mxCell>
        <mxCell id="FwX2CeR1oTPyir31EzKj-22" value="Planifier les ordres de fabrications" style="ellipse;whiteSpace=wrap;html=1;" vertex="1" parent="1">
          <mxGeometry x="609" y="50" width="120" height="80" as="geometry" />
        </mxCell>
        <mxCell id="FwX2CeR1oTPyir31EzKj-23" value="Suivre de l&#39;ordonnancement des OFs" style="ellipse;whiteSpace=wrap;html=1;" vertex="1" parent="1">
          <mxGeometry x="609" y="150" width="120" height="80" as="geometry" />
        </mxCell>
        <mxCell id="FwX2CeR1oTPyir31EzKj-36" value="Gérer les machines" style="ellipse;whiteSpace=wrap;html=1;" vertex="1" parent="1">
          <mxGeometry x="619" y="250" width="120" height="80" as="geometry" />
        </mxCell>
        <mxCell id="FwX2CeR1oTPyir31EzKj-37" value="Gérer les planning des OFs" style="ellipse;whiteSpace=wrap;html=1;" vertex="1" parent="1">
          <mxGeometry x="614" y="540" width="120" height="80" as="geometry" />
        </mxCell>
        <mxCell id="FwX2CeR1oTPyir31EzKj-38" value="Gérer les opérateurs" style="ellipse;whiteSpace=wrap;html=1;" vertex="1" parent="1">
          <mxGeometry x="619" y="340" width="120" height="80" as="geometry" />
        </mxCell>
        <mxCell id="FwX2CeR1oTPyir31EzKj-39" value="Gérer le rendement pour chaque opérateur par machine" style="ellipse;whiteSpace=wrap;html=1;" vertex="1" parent="1">
          <mxGeometry x="614" y="440" width="136" height="80" as="geometry" />
        </mxCell>
      </root>
    </mxGraphModel>
  </diagram>
</mxfile>
